<svg width="144" height="50" viewBox="0 0 144 50" fill="none" xmlns="http://www.w3.org/2000/svg">
<g clip-path="url(#clip0_16_249)">
<path fill-rule="evenodd" clip-rule="evenodd" d="M62.7932 11.867H70.1685V19.8948H74.9173V0.412415H70.1685V8.05371H62.7932V0.412415H58.045V19.8948H62.7932V11.867Z" fill="#04281B"/>
<path fill-rule="evenodd" clip-rule="evenodd" d="M84.2161 7.9977C85.813 7.9977 87.1302 8.96869 87.1561 10.6537H81.2215C81.4975 8.93418 82.6618 7.9977 84.2161 7.9977ZM84.2815 20.1153C88.1314 20.1153 90.884 17.7872 91.642 14.7706H86.5846C86.192 15.5828 85.4623 16.2628 84.1204 16.2628C82.5859 16.2628 81.3561 15.2933 81.19 13.2805H91.918C91.9859 12.8268 92.0135 12.3557 92.0135 11.902C92.0135 7.18548 88.8154 4.18881 84.2815 4.18881C79.6691 4.18881 76.4574 7.2411 76.4574 12.1455C76.4574 17.05 79.7339 20.1153 84.2815 20.1153Z" fill="#04281B"/>
<path fill-rule="evenodd" clip-rule="evenodd" d="M100.836 8.33017C102.636 8.33017 104.225 9.69165 104.225 12.1455C104.225 14.6128 102.636 15.9739 100.836 15.9739C99.0488 15.9739 97.4469 14.587 97.4469 12.1197C97.4469 9.65233 99.0488 8.33017 100.836 8.33017ZM99.4098 20.1153C101.715 20.1153 103.37 19.0549 104.225 17.6918V19.8948H108.972V4.40943H104.225V6.58634C103.384 5.24931 101.754 4.18881 99.4357 4.18881C95.6315 4.18881 92.6154 7.22468 92.6154 12.1197C92.6154 17.0147 95.6315 20.1153 99.4098 20.1153Z" fill="#04281B"/>
<path fill-rule="evenodd" clip-rule="evenodd" d="M138.592 4.40945L135.032 14.1031L131.448 4.40945H121.805L118.442 15.4646L115.065 4.40945H110.006L115.5 19.8948H121.343L126.535 5.29378L132.451 19.3661L128.902 27.2453H134.01L143.73 4.40945H138.592Z" fill="#04281B"/>
<path fill-rule="evenodd" clip-rule="evenodd" d="M65.0506 38.5277H62.7939V27.2298H65.0506C68.6352 27.2298 70.7402 29.3193 70.7402 32.9113C70.7402 36.4908 68.6352 38.5277 65.0506 38.5277ZM65.3439 23.1669H58.0455V42.6493H65.3439C71.5783 42.6493 75.5716 38.6754 75.5716 32.9113C75.5716 27.105 71.5783 23.1669 65.3439 23.1669Z" fill="#04281B"/>
<path fill-rule="evenodd" clip-rule="evenodd" d="M87.8247 35.5685C87.8247 37.6826 86.6647 38.8472 84.8462 38.8472C83.0555 38.8472 81.8808 37.6826 81.8808 35.5685V27.1641H77.1605V36.2016C77.1605 40.3591 79.558 42.8124 83.1536 42.8124C85.2364 42.8124 86.8869 41.8625 87.8247 40.5199V42.6493H92.5729V27.1641H87.8247V35.5685Z" fill="#04281B"/>
<path fill-rule="evenodd" clip-rule="evenodd" d="M112.518 36.8574L108.934 27.1641H100.563V23.3761H95.802V27.1641H93.9243V31.0945H95.802V37.2581C95.802 41.291 98.0668 42.6493 101.286 42.6493H103.696V38.6338H102.003C100.949 38.6338 100.563 38.2354 100.563 37.3172V31.0945H103.667V27.2056L109.937 42.1206L106.388 50H111.496L121.216 27.1641H116.078L112.518 36.8574Z" fill="#04281B"/>
<path d="M0.920403 10.1319H0.703613L0.920403 10.3612V10.1319Z" fill="url(#paint0_linear_16_249)"/>
<path fill-rule="evenodd" clip-rule="evenodd" d="M45.4054 -0.558899H0.980774V3.42153H24.8691C29.8698 3.42153 34.0455 5.1753 37.3974 8.68277C40.7481 12.1905 42.4238 16.5144 42.4238 21.6534C42.4238 26.7935 40.7481 31.1172 37.3974 34.6241C34.0455 38.1319 29.8698 39.8852 24.8691 39.8852H11.6997L18.312 33.0091H24.8691C28.029 33.0091 30.5993 31.9591 32.5787 29.8577C34.558 27.757 35.5479 25.0222 35.5479 21.6534C35.5479 18.2854 34.558 15.5507 32.5787 13.449C30.5993 11.3484 28.029 10.2975 24.8691 10.2975H0.980774V10.527L7.95238 17.9029H23.3146L29.4976 24.7792H7.95238V36.8404L1.31127 43.8658H45.4054V-0.558899Z" fill="#00863E"/>
</g>
<defs>
<linearGradient id="paint0_linear_16_249" x1="9.08267" y1="5.91769" x2="9.27495" y2="6.04255" gradientUnits="userSpaceOnUse">
<stop stop-color="#00863E"/>
<stop offset="1" stop-color="#34AC54"/>
</linearGradient>
<clipPath id="clip0_16_249">
<rect width="142.593" height="50" fill="white" transform="translate(0.703674)"/>
</clipPath>
</defs>
</svg>
